<svg xmlns="http://www.w3.org/2000/svg" width="296.321" height="476.057" viewBox="0 0 296.321 476.057">
  <path id="_9" data-name="9" d="M165.646-300.388l29.84-69.743q-23.942,7.287-41.638,7.287-51.006,0-82.408-40.076t-31.4-105.655q0-72.519,40.77-116.932t107.043-44.413q67.661,0,108.084,43.026T336.36-511.352q0,27.065-9.195,67.314a551.056,551.056,0,0,1-23.248,76.509q-14.053,36.259-79.285,173.664H114.64Zm69.743-212.7q0-30.187-12.665-48.4t-33.484-18.216q-21.166,0-35.392,18.39t-14.226,46.148q0,32.616,13.359,51.874t35.565,19.257q19.084,0,32.963-20.125T235.389-513.087Z" transform="translate(-40.039 669.922)" fill="#e0e1e2"/>
</svg>
